<?xml version="1.0" encoding="UTF-8" standalone="no"?>
<svg width="153px" height="116px" viewBox="0 0 153 116" version="1.1" xmlns="http://www.w3.org/2000/svg" xmlns:xlink="http://www.w3.org/1999/xlink">
    <!-- Generator: Sketch 3.6.1 (26313) - http://www.bohemiancoding.com/sketch -->
    <title>svg</title>
    <desc>Created with Sketch.</desc>
    <defs></defs>
    <g id="Page-1" stroke="none" stroke-width="1" fill="none" fill-rule="evenodd">
        <g id="Desktop-HD" transform="translate(-1088.000000, -45.000000)">
            <g id="svg" transform="translate(1088.000000, 45.000000)">
                <path d="M33.828125,36.5 C24.125,36.5 17.09375,38.5390625 11.9609375,41.421875 C7.25,44.1640625 3.875,48.171875 3.875,53.4453125 C3.875,59.7734375 7.8125,64.5546875 14.0703125,64.5546875 C21.171875,64.5546875 25.8125,60.1953125 25.8125,54.21875 C25.8125,48.3828125 22.4375,44.65625 17.3046875,42.8984375 C19.90625,40.3671875 24.125,39.3828125 27.5703125,39.3828125 C36.078125,39.3828125 39.3125,44.7265625 39.3125,52.25 L39.3125,63.5 C39.3125,69.6875 31.015625,72.4296875 20.3984375,76.4375 C7.0390625,81.359375 0.1484375,87.1953125 0.1484375,97.6015625 C0.1484375,108.078125 7.6015625,113.984375 18.359375,113.984375 C26.4453125,113.984375 34.671875,110.398438 39.59375,102.3125 C39.6640625,108.5 42.8984375,113.984375 53.4453125,113.984375 C60.7578125,113.984375 65.5390625,112.226562 69.8984375,108.710938 L68.421875,106.25 C66.8046875,107.515625 65.1875,108.710938 63.1484375,108.710938 C60.828125,108.710938 60.0546875,106.953125 60.0546875,102.3125 L60.0546875,63.1484375 C60.0546875,53.09375 59.140625,47.328125 54.921875,42.96875 C50.28125,38.1875 43.109375,36.5 33.828125,36.5 L33.828125,36.5 Z M39.3125,98.9375 C36.2890625,103.226562 33.125,104.773438 29.609375,104.773438 C24.4765625,104.773438 20.609375,101.539062 20.609375,93.59375 C20.609375,84.9453125 25.3203125,80.234375 30.3828125,76.5078125 C35.234375,73.484375 37.9765625,71.5859375 39.3125,69.40625 L39.3125,98.9375 Z M112.015625,0.359375 C103.929688,0.359375 96.4765625,3.453125 92.2578125,7.6015625 C85.578125,14.0703125 83.1875,21.6640625 83.1875,38.609375 L73.4140625,38.609375 L73.4140625,41.4921875 L83.1875,41.4921875 L83.1875,99.640625 C83.1875,107.65625 80.7265625,109.976562 73.9765625,109.976562 L73.9765625,113 C77.6328125,112.859375 85.3671875,112.4375 92.6796875,112.4375 C102.664062,112.4375 112.507812,112.859375 117.5,113 L117.5,109.976562 C108.992188,109.976562 103.929688,107.515625 103.929688,98.1640625 L103.929688,41.4921875 L119.328125,41.4921875 L119.328125,38.609375 L103.929688,38.609375 L103.929688,25.53125 C103.929688,14.421875 104.632812,9.640625 106.601562,6.7578125 C108.148438,4.4375 110.679688,2.9609375 114.40625,2.9609375 C117.21875,2.9609375 118.976562,3.875 119.609375,5 C114.054688,6.6171875 111.171875,10.765625 111.171875,15.6875 C111.171875,22.0859375 115.671875,25.953125 122.140625,25.953125 C128.1875,25.953125 132.335938,21.2421875 132.335938,15.8984375 C132.335938,11.1171875 130.15625,7.390625 127.414062,5.140625 C123.546875,2.2578125 118.695312,0.359375 112.015625,0.359375 L112.015625,0.359375 Z" id="af." fill="#FFFFFF"></path>
                <path d="M140.5625,92.75 C133.039062,92.75 128.328125,96.96875 128.328125,103.929688 C128.328125,110.820312 133.039062,115.039062 140.5625,115.039062 C148.085938,115.039062 152.867188,110.820312 152.867188,103.929688 C152.867188,96.96875 148.085938,92.75 140.5625,92.75 L140.5625,92.75 Z" id="Path" fill="#FF8864"></path>
            </g>
        </g>
    </g>
</svg>